<?xml version="1.0" encoding="utf-8"?>
<!-- Generator: Adobe Illustrator 21.0.2, SVG Export Plug-In . SVG Version: 6.00 Build 0)  -->
<svg version="1.1" id="Layer_1" xmlns="http://www.w3.org/2000/svg" xmlns:xlink="http://www.w3.org/1999/xlink" x="0px" y="0px"
	 viewBox="0 0 100 100" style="enable-background:new 0 0 100 100;" xml:space="preserve">
<style type="text/css">
	.st0{fill:none;stroke:#EA8C69;stroke-width:3.1913;stroke-linecap:round;stroke-linejoin:round;stroke-miterlimit:10;}
</style>
<title>25964</title>
<g id="FV8sul.tif">
	<g>
		<path class="st0" d="M50.7,40.8c-2.5,1.1-13.7-7.2-16.2-6.2c-5,2-1.6,15.3-0.1,19.7c1.5,4.7,1,8.6-2.4,12.4
			c-5.1,5.8-5.3,14.1-1.3,20.7c2.7,4.5,7.4,5.7,11.6,6.6c6.9,1.4,13.9,1,20.7-1.8c10.9-4.5,11.1-16.5,5.7-24.2
			c-3.6-5.2-5.2-9.3-2.7-15.4c1.9-4.5,4.7-15.3,0.1-17.3c-3.9-1.6-11.3,6.1-15.1,5.2"/>
		<path class="st0" d="M45,14.1c0.7,2.5,1.8,5,1.9,7.6C47.2,27.1,47,32.6,47,38"/>
		<path class="st0" d="M54.6,14.1c-0.5,3.1-1.4,6.1-1.5,9.2C52.8,28.2,53,33.1,53,38"/>
		<path class="st0" d="M55,8.1c-2.9-4-7.7-4-10.4,0"/>
		<path class="st0" d="M43.4,8.1c2.8,2.1,2.8,4,0,5.6"/>
		<path class="st0" d="M56.2,8.1c-2.8,2.1-2.8,4,0,5.6"/>
		<path class="st0" d="M49,53.6c-4.6,3.6-4.9,5.6-1.1,7.9c1.1,0.7,3.1,0.6,4.3,0c1.8-1,2.8-2.9,1.6-5.1c-0.9-1.7-2-3.2-4.4-2.8"/>
	</g>
</g>
<line class="st0" x1="44.8" y1="77.3" x2="54.9" y2="77.3"/>
</svg>
