<?xml version="1.0" encoding="utf-8"?>
<!-- Generator: Adobe Illustrator 21.0.2, SVG Export Plug-In . SVG Version: 6.00 Build 0)  -->
<svg version="1.1" id="Layer_1" xmlns="http://www.w3.org/2000/svg" xmlns:xlink="http://www.w3.org/1999/xlink" x="0px" y="0px"
	 viewBox="0 0 100 100" style="enable-background:new 0 0 100 100;" xml:space="preserve">
<style type="text/css">
	.st0{fill:none;stroke:#EA8C69;stroke-width:4.1456;stroke-linecap:round;stroke-linejoin:round;stroke-miterlimit:10;}
</style>
<g>
	<path class="st0" d="M68.4,43.7c-3.6-8.8-5.1-18.1-7.1-27.2c-0.7-3.1-3.5-5.6-2.4-9.4c0.2-0.9-2-2.2-3.9-2.1
		c-4.8,0.2-9.7,0.2-14.5,0c-2.1-0.1-3.3,0.6-3.6,2.6c-1.4,9-4.4,17.5-6.3,26.4C29.2,40.7,27,47.1,26,53.8c-1.5,9.9-4.8,19.3-6.8,29
		c-0.1,0.7,0.1,1.4,0,2.1c-0.8,2.7-3.3,5.6-0.4,8.2c2.5,2.3,6.2,1.7,9.2,1.5c12.4-0.8,24.9-0.2,37.3-0.3c3.3,0,6.6-0.3,9.8-0.2
		c4.2,0.1,3.5-3.5,3-5.6c-3.1-12.1-6-24.2-8.6-36.3c-0.3-1.4-1.3-2.3-1.6-3.6"/>
	<path class="st0" d="M71,65.2c-6,0.8-12.1,0.8-18.1,0c-3.3-0.4-6.6-0.4-9.8,0c-6.1,0.7-12.1,1.3-18.1-0.5"/>
	<path class="st0" d="M76.7,37.2c-2.6,2.5-6.8,4.5-7.8,6.9c-1.6,3.6-4.9,4.7-6.6,7.6c-3.9,6.5-9.9,7.3-16.6,6.7"/>
	<path class="st0" d="M82.9,30.4c-1.1-0.8-3-1-3.5-0.4c-1.4,1.5-3.5,2.9-2.4,5.6c0.6,1.6,2.2,2,3.3,1.5c2.5-1.1,5.1-2.6,3.1-6.1"/>
	<path class="st0" d="M51.8,13.9c-1,12.2,0.5,24.5-0.7,36.8c-0.4,4.3,2.3,8.9,0.2,13.4"/>
	<path class="st0" d="M44.5,13.9c0,8.1-0.7,16.3-0.3,24.3c0.4,8.6-0.8,17.3,0.8,25.9"/>
	<path class="st0" d="M58.5,11.8c-7.1,1.3-14.2,1.2-21.2,0"/>
</g>
</svg>
