<svg id="Rock_" data-name="Rock!" xmlns="http://www.w3.org/2000/svg" width="30" height="47" viewBox="0 0 30 47">
  <metadata><?xpacket begin="﻿" id="W5M0MpCehiHzreSzNTczkc9d"?>
<x:xmpmeta xmlns:x="adobe:ns:meta/" x:xmptk="Adobe XMP Core 5.6-c138 79.159824, 2016/09/14-01:09:01        ">
   <rdf:RDF xmlns:rdf="http://www.w3.org/1999/02/22-rdf-syntax-ns#">
      <rdf:Description rdf:about=""/>
   </rdf:RDF>
</x:xmpmeta>
                                                                                                    
                                                                                                    
                                                                                                    
                                                                                                    
                                                                                                    
                                                                                                    
                                                                                                    
                                                                                                    
                                                                                                    
                                                                                                    
                                                                                                    
                                                                                                    
                                                                                                    
                                                                                                    
                                                                                                    
                                                                                                    
                                                                                                    
                                                                                                    
                                                                                                    
                                                                                                    
                           
<?xpacket end="w"?></metadata>
<defs>
    <style>
      .cls-1 {
        fill: #ff9d1a;
        fill-rule: evenodd;
      }
    </style>
  </defs>
  <path id="Rock_2" data-name="Rock!" class="cls-1" d="M245,252v3a14,14,0,0,1-14,14h-2a14,14,0,0,1-14-14v-6Zm-2,0v3a12,12,0,0,1-12,12h-2a12,12,0,0,1-12-12v-6Zm-24-24a4,4,0,0,1,4,4v17a4,4,0,0,1-8,0V232A4,4,0,0,1,219,228Zm0,2a2,2,0,0,1,2,2v23a2,2,0,0,1-4,0V232A2,2,0,0,1,219,230Zm6,8a4,4,0,0,1,4,4v10a4,4,0,0,1-8,0V242A4,4,0,0,1,225,238Zm0,2a2,2,0,0,1,2,2v10a2,2,0,0,1-4,0V242A2,2,0,0,1,225,240Zm6-2a4,4,0,0,1,4,4v10a4,4,0,0,1-8,0V242A4,4,0,0,1,231,238Zm0,2a2,2,0,0,1,2,2v10a2,2,0,0,1-4,0V242A2,2,0,0,1,231,240Zm-6,10c2.209,0,4-.209,4,2a4,4,0,0,1-8,0C221,249.791,222.791,250,225,250Zm0,2h2a2,2,0,0,1-4,0h2Zm6-2c2.209,0,4-.209,4,2a4,4,0,0,1-8,0C227,249.791,228.791,250,231,250Zm0,2h2a2,2,0,0,1-4,0h2Zm6-30a4,4,0,0,1,4,4v22a4,4,0,0,1-8,0V226A4,4,0,0,1,237,222Zm0,2a2,2,0,0,1,2,2v22a2,2,0,0,1-4,0V226A2,2,0,0,1,237,224Zm-6.406,22a4,4,0,0,1,5.464-1.464l6.928,4a4,4,0,1,1-4,6.928l-6.928-4A4,4,0,0,1,230.594,246Zm1.671,1a2.019,2.019,0,0,1,2.749-.732l6.966,4a1.993,1.993,0,0,1,.736,2.732,2.019,2.019,0,0,1-2.749.732l-6.965-4A1.993,1.993,0,0,1,232.265,247ZM240,251h1a2,2,0,0,1,2,2v3a2,2,0,0,1-2,2h-1a2,2,0,0,1-2-2v-3A2,2,0,0,1,240,251Zm-2,2a1,1,0,1,1-1,1A1,1,0,0,1,238,253Z" transform="translate(-215 -222)"/>
</svg>
