<?xml version="1.0" encoding="utf-8"?>
<!-- Generator: Adobe Illustrator 21.0.2, SVG Export Plug-In . SVG Version: 6.00 Build 0)  -->
<svg version="1.1" id="Layer_1" xmlns="http://www.w3.org/2000/svg" xmlns:xlink="http://www.w3.org/1999/xlink" x="0px" y="0px"
	 viewBox="0 0 100 100" style="enable-background:new 0 0 100 100;" xml:space="preserve">
<style type="text/css">
	.st0{fill:none;stroke:#EA8C69;stroke-width:4.7235;stroke-linecap:round;stroke-linejoin:round;stroke-miterlimit:10;}
</style>
<title>25964</title>
<g id="iCX9jf.tif">
	<g>
		<path class="st0" d="M66.5,28.2c1-6.2,1.2-11.9-3.4-17.2c-5.2-6-11.4-6.7-18.4-5.2C37,7.3,32.8,13.2,32.6,19.9
			c-0.5,13.9,0,28,1.1,41.9c0.7,7.9,8.4,13.2,16.3,13c8.4-0.2,16.6-6.4,16.9-14.2c0.5-10.6-0.2-21.2-0.4-31.9"/>
		<path class="st0" d="M24.6,37.6c0.2,8.1-0.1,16.2,0.7,24.2C26.5,73.1,39,83.7,50,83.7c11.9,0,25.1-13.3,25.4-25.4
			c0.1-6.9,0-13.8,0-20.7"/>
		<path class="st0" d="M34.6,94.9c10.2,0,20.5,0,30.7,0"/>
		<path class="st0" d="M44.1,44.1c-6.1-0.2-12.2-0.4-18.3-0.6"/>
		<path class="st0" d="M33.4,35.9c3.5,0,7.1,0,10.6,0"/>
		<path class="st0" d="M74.2,43.5c-6.1,0.2-12.2,0.4-18.3,0.6"/>
		<path class="st0" d="M33.4,51.2c3.5,0,7.1,0,10.6,0"/>
		<path class="st0" d="M65.9,35.9c-3.3,0-6.7,0-10,0"/>
		<path class="st0" d="M65.9,28.2c-3.3-0.2-6.7-0.4-10-0.6"/>
		<path class="st0" d="M65.9,51.8c-3.3-0.2-6.7-0.4-10-0.6"/>
		<path class="st0" d="M42.9,27.6c-3.1,0.2-6.3,0.4-9.4,0.6"/>
		<path class="st0" d="M50,84.3c-0.2,3.1-0.4,6.3-0.6,9.4"/>
	</g>
</g>
</svg>
