<?xml version="1.0" encoding="utf-8"?>
<!-- Generator: Adobe Illustrator 21.0.2, SVG Export Plug-In . SVG Version: 6.00 Build 0)  -->
<svg version="1.1" id="Layer_1" xmlns="http://www.w3.org/2000/svg" xmlns:xlink="http://www.w3.org/1999/xlink" x="0px" y="0px"
	 viewBox="0 0 100 100" style="enable-background:new 0 0 100 100;" xml:space="preserve">
<style type="text/css">
	.st0{fill:#EA8C69;}
	.st1{fill:#FFFFFF;}
</style>
<g>
	<g>
		<path class="st0" d="M50,84.7c-3.2,0-6.4-0.4-9.4-1.3l0.3-1c5.9,1.7,12.2,1.7,18.1,0l0.3,1C56.3,84.3,53.1,84.7,50,84.7z M50,78.4
			c-3.2,0-6.4-0.5-9.5-1.6l0.3-0.9c5.8,2.1,12.3,2.1,18.2,0l0.3,0.9C56.4,77.9,53.2,78.4,50,78.4z"/>
	</g>
</g>
<g>
	<g>
		<path class="st0" d="M50,1c27,0,49,22,49,49S77,99,50,99S1,77,1,50S23,1,50,1 M50,0C22.4,0,0,22.4,0,50s22.4,50,50,50
			s50-22.4,50-50S77.6,0,50,0L50,0z"/>
	</g>
</g>
<g>
	<path class="st0" d="M70.9,89.4c-0.2,0.1-0.4,0.2-0.6,0.2l0.7,1.3c0.1,0.2,0,0.4-0.2,0.6c-0.3,0.2-0.5,0.1-0.6-0.1l-2.3-4.2
		c-0.1-0.3-0.3-0.5,0.1-0.8c0.2-0.2,0.5-0.4,0.9-0.6c1.3-0.7,2.5-0.6,3.1,0.7C72.6,87.7,72,88.8,70.9,89.4z M70.4,88.7
		c0.8-0.4,1-1,0.6-1.7c-0.4-0.8-1.1-0.8-1.8-0.4c-0.1,0.1-0.3,0.2-0.4,0.3l1.1,2.1C70.1,88.8,70.2,88.7,70.4,88.7z"/>
	<path class="st0" d="M77.6,85.3c-0.1-0.2-0.2-0.4-0.3-0.7L75.3,82c-0.2-0.2-0.1-0.4,0.1-0.6c0.3-0.2,0.5-0.2,0.6,0l1.9,2.6
		c0.3,0.4,0.5,0.8,0.5,1.1c0.2,0.9-0.2,1.6-1,2.2c-0.8,0.6-1.6,0.8-2.4,0.3c-0.3-0.2-0.6-0.5-0.9-0.8l-1.9-2.6
		c-0.2-0.2-0.1-0.4,0.2-0.6c0.3-0.2,0.5-0.2,0.6,0l1.9,2.6c0.2,0.2,0.3,0.4,0.5,0.5c0.5,0.3,0.9,0.2,1.4-0.1
		C77.5,86.3,77.7,85.8,77.6,85.3z"/>
	<path class="st0" d="M81.7,83.2c0.2,0.2,0.2,0.4,0,0.6c-0.2,0.2-0.4,0.2-0.6,0.1l-3.6-3.5c-0.3-0.3-0.2-0.5,0.1-0.8
		c0.3-0.3,0.6-0.3,0.9-0.3l4.6,1.1l-2.9-2.9c-0.2-0.2-0.2-0.4,0.1-0.6c0.2-0.2,0.4-0.2,0.6-0.1l3.6,3.5c0.3,0.3,0.2,0.5,0,0.8
		c-0.3,0.3-0.6,0.3-0.9,0.2l-4.7-1.1L81.7,83.2z"/>
	<path class="st0" d="M88.8,75c0.1,0.1,0.1,0.2-0.1,0.6c-0.2,0.2-0.3,0.3-0.7,0.4l-3.3,0.2l2,1.5c0.2,0.2,0.2,0.4,0,0.6
		c-0.2,0.3-0.4,0.3-0.6,0.2l-4.2-3c-0.2-0.2-0.2-0.4,0-0.6c0.2-0.3,0.4-0.3,0.6-0.2l1.9,1.3l-0.7-3.1c-0.1-0.3,0-0.5,0.1-0.7
		c0.2-0.3,0.4-0.3,0.5-0.2c0.1,0.1,0.2,0.3,0.2,0.5l0.5,2.9l3.2-0.3C88.5,74.9,88.7,74.9,88.8,75z"/>
</g>
<g>
	<g>
		<g>
			<path class="st0" d="M63.7,91.8c-0.2,0-0.4-0.1-0.5-0.2S63,91.3,63,91.1c0-0.1,0-0.2,0.1-0.3s0.1-0.2,0.2-0.2
				c0.1-0.1,0.1-0.1,0.2-0.2c0.2-0.1,0.4-0.1,0.6,0c0.1,0,0.2,0.1,0.2,0.2c0.1,0.1,0.1,0.2,0.2,0.2s0.1,0.2,0.1,0.3
				c0,0.2-0.1,0.4-0.2,0.5C64.1,91.8,63.9,91.8,63.7,91.8z"/>
		</g>
		<g>
			<path class="st0" d="M52.1,94L52.1,94c-0.4,0-0.8-0.3-0.8-0.8s0.3-0.8,0.8-0.8s0.8,0.3,0.8,0.8S52.5,94,52.1,94z M48.1,94
				L48.1,94c-0.4,0-0.8-0.3-0.8-0.8s0.3-0.8,0.8-0.8s0.8,0.3,0.8,0.8S48.5,94,48.1,94z M56,93.7c-0.3,0-0.6-0.2-0.7-0.6
				c-0.1-0.4,0.1-0.8,0.5-0.9c0.5-0.1,0.9,0.3,0.9,0.7C56.8,93.3,56.5,93.7,56,93.7C56.1,93.7,56,93.7,56,93.7z M44.2,93.7
				c-0.1,0-0.2,0-0.2,0c-0.4-0.1-0.6-0.6-0.5-0.9c0.1-0.3,0.5-0.5,0.8-0.5c0.4,0,0.7,0.4,0.7,0.7C44.9,93.3,44.6,93.7,44.2,93.7z
				 M40.3,93c0,0-0.1,0-0.1,0c-0.4-0.1-0.6-0.4-0.6-0.7c0-0.5,0.5-0.9,1-0.7c0.4,0.1,0.6,0.5,0.5,0.9C40.9,92.7,40.6,93,40.3,93z
				 M59.9,93c-0.4,0-0.8-0.3-0.8-0.8c0-0.4,0.3-0.7,0.6-0.7c0.4-0.1,0.7,0.1,0.9,0.5c0.1,0.4-0.1,0.8-0.5,0.9
				C60.1,92.9,60,93,59.9,93z M36.2,91.9c-0.4-0.1-0.6-0.5-0.5-0.9c0.1-0.4,0.5-0.6,0.9-0.5L36.2,91.9z M32.7,90.5
				c-0.1,0-0.2,0-0.2,0c0,0-0.1,0-0.1-0.1c-0.4-0.2-0.5-0.7-0.3-1c0.2-0.3,0.6-0.5,1-0.3c0.4,0.2,0.5,0.6,0.4,0.9
				C33.4,90.3,33.1,90.5,32.7,90.5z M29.2,88.7c-0.1,0-0.2,0-0.4-0.1c-0.3-0.2-0.5-0.5-0.4-0.9c0.1-0.4,0.6-0.6,0.9-0.5
				c0.1,0,0.1,0.1,0.2,0.1c0.3,0.2,0.4,0.7,0.2,1C29.7,88.6,29.4,88.7,29.2,88.7z M25.8,86.7c-0.1,0-0.3,0-0.4-0.1c0,0,0,0-0.1,0
				c-0.3-0.3-0.4-0.7-0.1-1.1c0.3-0.3,0.7-0.4,1.1-0.1c0.3,0.3,0.4,0.7,0.1,1C26.3,86.6,26,86.7,25.8,86.7z M22.2,84.2
				c-0.3-0.2-0.4-0.7-0.2-1s0.7-0.4,1-0.2L22.2,84.2z M19.7,81.7c-0.2,0-0.3-0.1-0.5-0.2c-0.1,0-0.1-0.1-0.2-0.2
				c-0.2-0.3-0.1-0.8,0.2-1c0.3-0.2,0.7-0.2,1,0.1c0.3,0.3,0.3,0.7,0.1,1C20.1,81.6,19.9,81.7,19.7,81.7z M17,78.8
				c-0.2,0-0.4-0.1-0.6-0.3c-0.2-0.3-0.2-0.7,0-1c0.3-0.3,0.7-0.4,1.1-0.1c0.1,0,0.1,0.1,0.2,0.2c0.2,0.3,0.1,0.8-0.2,1
				C17.3,78.7,17.1,78.8,17,78.8z M14.6,75.6c-0.2,0-0.5-0.1-0.6-0.3c-0.2-0.3-0.2-0.7,0.1-1c0.3-0.3,0.8-0.3,1.1,0
				c0,0,0.1,0.1,0.1,0.1c0.2,0.3,0.1,0.8-0.2,1C14.8,75.6,14.7,75.6,14.6,75.6z M12.4,72.3c-0.3,0-0.5-0.1-0.7-0.4
				c-0.2-0.3-0.1-0.8,0.2-1c0.3-0.2,0.8-0.1,1,0.2c0,0,0,0.1,0.1,0.1c0.2,0.4,0,0.8-0.3,1C12.6,72.3,12.5,72.3,12.4,72.3z
				 M10.7,68.8c-0.3,0-0.6-0.2-0.7-0.5c0,0,0-0.1,0-0.1c-0.1-0.4,0.1-0.8,0.5-0.9c0.4-0.1,0.8,0.1,0.9,0.5c0.2,0.4,0,0.8-0.4,1
				C10.9,68.8,10.8,68.8,10.7,68.8z M90.5,66.1c-0.1,0-0.3,0-0.4-0.1c-0.3-0.2-0.4-0.6-0.3-0.9c0.2-0.3,0.5-0.5,0.9-0.4
				c0.4,0.1,0.6,0.6,0.5,0.9c0,0.1-0.1,0.1-0.1,0.2C91,66,90.7,66.1,90.5,66.1z M8.4,64.6c-0.1-0.4,0.1-0.8,0.4-1
				c0.4-0.1,0.8,0.1,1,0.4L8.4,64.6z M91.7,62.3c-0.1,0-0.1,0-0.2,0c-0.4-0.1-0.6-0.5-0.5-0.9l1.5,0.4
				C92.4,62.1,92.1,62.3,91.7,62.3z M92.4,61.8L92.4,61.8L92.4,61.8z M8,61.3c-0.3,0-0.6-0.2-0.7-0.5c0,0,0-0.1,0-0.2
				c-0.1-0.4,0.2-0.8,0.7-0.8c0.4-0.1,0.7,0.2,0.8,0.6c0.1,0.4-0.1,0.8-0.5,0.9C8.1,61.3,8.1,61.3,8,61.3z M92.6,58.5
				c-0.4,0-0.8-0.3-0.8-0.8c0-0.1,0-0.2,0-0.2c0.1-0.4,0.6-0.6,0.9-0.5c0.4,0.1,0.6,0.5,0.5,0.9C93.3,58.2,93,58.5,92.6,58.5z
				 M7.2,57.4c-0.4,0-0.7-0.3-0.7-0.6c0,0,0,0,0,0c-0.1-0.4,0.2-0.8,0.7-0.8c0.4-0.1,0.8,0.2,0.8,0.7C8,57,7.7,57.4,7.3,57.4
				C7.3,57.4,7.2,57.4,7.2,57.4z M93.1,54.5c-0.1,0-0.1,0-0.2,0c-0.4-0.1-0.6-0.4-0.6-0.8c0-0.4,0.4-0.7,0.7-0.7l0,0
				c0.4,0,0.8,0.3,0.8,0.8c0,0.1,0,0.1,0,0.2C93.8,54.3,93.5,54.5,93.1,54.5z M6.8,53.5c-0.4,0-0.7-0.3-0.7-0.7
				c0-0.4,0.3-0.7,0.7-0.8c0.4-0.1,0.8,0.2,0.8,0.7c0,0,0,0.1,0,0.1C7.5,53.2,7.2,53.5,6.8,53.5z M93.3,50.6c-0.4,0-0.8-0.3-0.8-0.8
				s0.3-0.8,0.8-0.8s0.8,0.3,0.8,0.7v0C94.1,50.2,93.7,50.6,93.3,50.6z M6.7,49.5L6.7,49.5c-0.4,0-0.8-0.3-0.8-0.8c0,0,0-0.1,0-0.1
				C6,48.3,6.4,48,6.8,48c0.4,0.1,0.6,0.4,0.6,0.8C7.4,49.2,7.1,49.5,6.7,49.5z M93.1,46.6c-0.3,0-0.6-0.2-0.7-0.5
				c0-0.1,0-0.2,0-0.2c0-0.4,0.3-0.8,0.8-0.8c0.4,0,0.7,0.3,0.7,0.7c0,0.3-0.2,0.7-0.5,0.8C93.3,46.6,93.2,46.6,93.1,46.6z M7,45.6
				c0,0-0.1,0-0.1,0c-0.4-0.1-0.7-0.4-0.6-0.8c0-0.4,0.4-0.7,0.7-0.7c0.4,0,0.8,0.3,0.8,0.8c0,0,0,0.1,0,0.1
				C7.7,45.3,7.4,45.6,7,45.6z M92.6,42.7c-0.4,0-0.7-0.3-0.7-0.6c-0.1-0.4,0.2-0.8,0.5-0.9c0.4-0.1,0.8,0.1,0.9,0.5
				c0,0.1,0,0.1,0,0.2C93.3,42.4,93,42.7,92.6,42.7z M7.6,41.7c0,0-0.1,0-0.1,0c-0.4-0.1-0.7-0.4-0.6-0.8c0,0,0-0.1,0-0.1
				c0.1-0.4,0.6-0.6,0.9-0.5c0.4,0.1,0.6,0.5,0.5,0.9C8.3,41.4,8,41.7,7.6,41.7z M91.7,38.9c-0.3,0-0.6-0.2-0.7-0.5
				c-0.1-0.4,0.1-0.8,0.5-0.9c0.4-0.1,0.8,0.1,0.9,0.5c0,0,0,0,0,0c0.1,0.4-0.1,0.8-0.5,0.9C91.8,38.8,91.7,38.9,91.7,38.9z
				 M9.4,37.3l-1.4-0.4c0.1-0.4,0.5-0.6,0.9-0.5C9.3,36.5,9.5,36.9,9.4,37.3z M90.4,35.1c-0.3,0-0.5-0.1-0.7-0.4c0,0,0-0.1-0.1-0.1
				c-0.1-0.4,0.1-0.8,0.5-0.9c0.4-0.1,0.8,0.1,0.9,0.4c0.2,0.3,0,0.8-0.3,1C90.7,35.1,90.5,35.1,90.4,35.1z M10,34.1
				c-0.1,0-0.2,0-0.3-0.1c-0.4-0.2-0.5-0.6-0.4-1c0.1-0.4,0.5-0.5,0.9-0.4c0.4,0.1,0.6,0.5,0.5,0.9c0,0,0,0.1-0.1,0.1
				C10.5,34,10.3,34.1,10,34.1z M88.8,31.5c-0.3,0-0.5-0.2-0.7-0.4c-0.2-0.3-0.1-0.8,0.2-1c0.3-0.2,0.8-0.1,1,0.2
				c0,0.1,0.1,0.1,0.1,0.2c0.1,0.4-0.1,0.8-0.5,0.9C89,31.5,88.9,31.5,88.8,31.5z M11.7,30.5c-0.1,0-0.2,0-0.3-0.1
				c-0.4-0.2-0.5-0.6-0.3-1l0,0c0.2-0.4,0.6-0.5,1-0.3c0.4,0.2,0.5,0.6,0.3,1C12.2,30.4,12,30.5,11.7,30.5z M86.9,28
				c-0.3,0-0.5-0.1-0.7-0.4c-0.2-0.3-0.1-0.8,0.2-1c0.3-0.2,0.8-0.1,1,0.2c0,0,0.1,0.1,0.1,0.1c0.2,0.4,0,0.8-0.4,1
				C87.1,28,87,28,86.9,28z M14.3,26.8L13.1,26c0.2-0.4,0.7-0.5,1-0.3C14.4,25.9,14.6,26.4,14.3,26.8z M84.6,24.7
				c-0.2,0-0.5-0.1-0.6-0.3c-0.2-0.3-0.1-0.8,0.2-1c0.3-0.2,0.8-0.2,1,0.1c0,0,0,0,0,0.1c0.2,0.3,0.1,0.8-0.2,1
				C84.9,24.7,84.8,24.7,84.6,24.7z M16,23.9c-0.2,0-0.3-0.1-0.5-0.2c-0.3-0.3-0.4-0.7-0.1-1c0,0,0,0,0,0c0.3-0.3,0.7-0.4,1.1-0.1
				c0.3,0.3,0.4,0.7,0.1,1.1C16.4,23.8,16.2,23.9,16,23.9z M82.1,21.7c-0.2,0-0.3-0.1-0.5-0.2c0,0-0.1-0.1-0.1-0.1
				c-0.3-0.3-0.2-0.8,0.1-1.1c0.3-0.2,0.8-0.2,1,0.1c0.3,0.3,0.3,0.7,0,1C82.5,21.6,82.3,21.7,82.1,21.7z M18.6,20.9
				c-0.2,0-0.4-0.1-0.5-0.2c-0.3-0.3-0.3-0.7,0-1c0.3-0.3,0.7-0.3,1-0.1c0.3,0.3,0.4,0.7,0.1,1.1C19,20.8,18.8,20.9,18.6,20.9z
				 M79.3,18.9c-0.1,0-0.3,0-0.4-0.1c-0.1,0-0.1-0.1-0.2-0.2c-0.3-0.3-0.2-0.8,0.1-1.1c0.3-0.2,0.7-0.2,1,0.1c0.3,0.2,0.3,0.6,0.1,1
				C79.8,18.8,79.6,18.9,79.3,18.9z M21.5,18.1c-0.2,0-0.4-0.1-0.6-0.3c-0.3-0.3-0.2-0.7,0.1-1c0.3-0.3,0.7-0.2,1,0
				c0.3,0.3,0.3,0.8,0,1.1C21.8,18.1,21.7,18.1,21.5,18.1z M76.3,16.3c-0.2,0-0.3-0.1-0.5-0.2c-0.3-0.2-0.4-0.7-0.2-1
				c0.2-0.3,0.7-0.4,1-0.2c0,0,0.1,0.1,0.1,0.1c0.3,0.3,0.3,0.8,0,1.1C76.7,16.3,76.5,16.3,76.3,16.3z M24.5,15.7
				c-0.2,0-0.5-0.1-0.6-0.3c-0.2-0.3-0.2-0.8,0.1-1c0,0,0,0,0.1,0c0.3-0.2,0.8-0.1,1,0.2c0.2,0.3,0.1,0.8-0.2,1
				C24.8,15.7,24.7,15.7,24.5,15.7z M73,14.1c-0.1,0-0.2,0-0.3-0.1c0,0-0.1,0-0.1-0.1c-0.3-0.2-0.4-0.7-0.2-1c0.2-0.3,0.7-0.4,1-0.2
				c0.3,0.2,0.5,0.6,0.3,1C73.6,13.9,73.3,14.1,73,14.1z M27.8,13.5c-0.3,0-0.5-0.2-0.7-0.4c-0.2-0.4,0-0.8,0.3-1
				c0.3-0.2,0.7-0.1,1,0.2c0.3,0.3,0.2,0.8-0.1,1.1c0,0-0.1,0.1-0.1,0.1C28.1,13.5,28,13.5,27.8,13.5z M69.6,12.1
				c-0.1,0-0.2,0-0.3-0.1c-0.4-0.2-0.5-0.6-0.3-1c0.2-0.4,0.6-0.5,1-0.3l0,0c0.4,0.2,0.5,0.6,0.3,1C70.1,12,69.9,12.1,69.6,12.1z
				 M31.3,11.6c-0.3,0-0.5-0.2-0.7-0.4c-0.2-0.4,0-0.8,0.3-1l0,0c0.4-0.2,0.8,0,1,0.3s0,0.8-0.3,1C31.6,11.6,31.5,11.6,31.3,11.6z
				 M66,10.5c-0.1,0-0.2,0-0.3-0.1c-0.4-0.1-0.6-0.5-0.4-0.9c0.1-0.4,0.6-0.6,1-0.5c0,0,0.1,0,0.1,0c0.4,0.2,0.5,0.6,0.3,1
				C66.5,10.3,66.3,10.5,66,10.5z M35.3,10l-0.6-1.4c0.4-0.2,0.8,0,1,0.4C35.8,9.4,35.7,9.9,35.3,10z M62.2,9.2c-0.1,0-0.1,0-0.2,0
				l0.4-1.5c0.4,0.1,0.6,0.5,0.5,0.9C62.9,9,62.6,9.2,62.2,9.2z M38.7,8.9c-0.3,0-0.6-0.2-0.7-0.6c-0.1-0.4,0.2-0.8,0.6-0.9
				c0,0,0.1,0,0.1,0c0.4-0.1,0.8,0.2,0.9,0.6s-0.2,0.8-0.6,0.9C38.8,8.9,38.8,8.9,38.7,8.9z M58.4,8.3c-0.1,0-0.1,0-0.2,0
				c-0.4-0.1-0.6-0.5-0.6-0.9c0.1-0.4,0.5-0.7,0.9-0.6c0,0,0,0,0.1,0c0.4,0.1,0.6,0.5,0.5,0.9C59,8,58.7,8.3,58.4,8.3z M42.8,8
				l-0.2-1.5c0.4-0.1,0.8,0.2,0.9,0.6C43.4,7.6,43.2,8,42.8,8z M54.5,7.7c0,0-0.1,0-0.1,0c-0.4-0.1-0.7-0.5-0.6-0.9
				c0.1-0.4,0.4-0.7,0.8-0.6c0.4,0,0.7,0.4,0.7,0.7C55.2,7.3,54.9,7.7,54.5,7.7z M46.5,7.6c-0.4,0-0.6-0.3-0.7-0.6
				c-0.1-0.4,0.3-0.8,0.7-0.9c0.4-0.1,0.9,0.3,0.9,0.7c0,0.4-0.3,0.8-0.8,0.8C46.5,7.6,46.5,7.6,46.5,7.6z M50.5,7.4
				c-0.4,0-0.8-0.3-0.8-0.8s0.3-0.8,0.7-0.8h0c0.4,0,0.8,0.3,0.8,0.8S50.9,7.4,50.5,7.4z M42.6,7.3L42.6,7.3L42.6,7.3z"/>
		</g>
		<g>
			<path class="st0" d="M88.9,69.8c-0.2,0-0.4-0.1-0.5-0.2c-0.1-0.1-0.2-0.3-0.2-0.5s0.1-0.4,0.2-0.5c0.2-0.2,0.5-0.3,0.8-0.2
				c0.1,0,0.2,0.1,0.2,0.2c0.1,0.1,0.2,0.3,0.2,0.5s-0.1,0.4-0.2,0.5c-0.1,0.1-0.1,0.1-0.2,0.2C89.1,69.8,89,69.8,88.9,69.8z"/>
		</g>
	</g>
</g>
<g>
	<g>
		<path class="st0" d="M50,13.4c20.2,0,36.6,16.4,36.6,36.6S70.2,86.6,50,86.6S13.4,70.2,13.4,50S29.8,13.4,50,13.4 M50,12.4
			c-20.7,0-37.6,16.8-37.6,37.6S29.3,87.6,50,87.6S87.6,70.7,87.6,50S70.7,12.4,50,12.4L50,12.4z"/>
	</g>
</g>
<g>
	<path class="st0" d="M40.7,86.2c-0.2,0-0.4-0.2-0.4-0.4V72.7c0-0.2,0.2-0.4,0.4-0.4s0.4,0.2,0.4,0.4v13.1
		C41.2,86,41,86.2,40.7,86.2z"/>
</g>
<g>
	<path class="st0" d="M59.2,86.2c-0.2,0-0.4-0.2-0.4-0.4V72.7c0-0.2,0.2-0.4,0.4-0.4s0.4,0.2,0.4,0.4v13.1
		C59.7,86,59.5,86.2,59.2,86.2z"/>
</g>
<g>
	<g>
		<path class="st0" d="M50,19c17.1,0,31,13.9,31,31S67.1,81,50,81S19,67.1,19,50S32.9,19,50,19 M50,18.2
			c-17.5,0-31.8,14.2-31.8,31.8S32.5,81.8,50,81.8S81.8,67.5,81.8,50S67.5,18.2,50,18.2L50,18.2z"/>
	</g>
</g>
<g>
	<g>
		<path class="st0" d="M50,24.8c13.9,0,25.2,11.3,25.2,25.2S63.9,75.2,50,75.2S24.8,63.9,24.8,50S36.1,24.8,50,24.8 M50,24.2
			c-14.2,0-25.8,11.5-25.8,25.8S35.8,75.8,50,75.8S75.8,64.2,75.8,50S64.2,24.2,50,24.2L50,24.2z"/>
	</g>
</g>
<g>
	<g>
		<path class="st0" d="M50,32.8c9.5,0,17.2,7.7,17.2,17.2S59.5,67.2,50,67.2S32.8,59.5,32.8,50S40.5,32.8,50,32.8 M50,32.3
			c-9.7,0-17.7,7.9-17.7,17.7s8,17.7,17.7,17.7s17.7-8,17.7-17.7S59.7,32.3,50,32.3L50,32.3z"/>
	</g>
</g>
<g>
	<path class="st1" d="M67.3,44.4v17c0,6.3-5.2,11.5-11.5,11.5H44.2c-6.3,0-11.5-5.2-11.5-11.5v-17"/>
	<path class="st0" d="M55.8,73.4H44.2c-6.6,0-12-5.4-12-12v-17c0-0.2,0.2-0.4,0.4-0.4s0.4,0.2,0.4,0.4v17c0,6.1,5,11.1,11.1,11.1
		h11.6c6.1,0,11.1-5,11.1-11.1v-17c0-0.2,0.2-0.4,0.4-0.4s0.4,0.2,0.4,0.4v17C67.8,68.1,62.4,73.4,55.8,73.4z"/>
</g>
<g>
	<path class="st1" d="M32.7,60.8V28.6c0-2.4,2-4.4,4.4-4.4h0c2.4,0,4.4,2,4.4,4.4v23.2"/>
	<path class="st0" d="M32.7,61.2c-0.2,0-0.4-0.2-0.4-0.4V28.6c0-2.7,2.2-4.8,4.8-4.8c2.7,0,4.8,2.2,4.8,4.8v23.2
		c0,0.2-0.2,0.4-0.4,0.4s-0.4-0.2-0.4-0.4V28.6c0-2.2-1.8-4-4-4c-2.2,0-4,1.8-4,4v32.2C33.1,61,32.9,61.2,32.7,61.2z"/>
</g>
<g>
	<path class="st1" d="M45.7,61.1L45.7,61.1c-2.3,0-4.3-1.9-4.3-4.3v-9.6c0-2.3,1.9-4.3,4.3-4.3h0c2.3,0,4.3,1.9,4.3,4.3v9.6
		C50,59.1,48.1,61.1,45.7,61.1z"/>
	<path class="st0" d="M45.7,61.5c-2.6,0-4.7-2.1-4.7-4.7v-9.6c0-2.6,2.1-4.7,4.7-4.7s4.7,2.1,4.7,4.7v9.6
		C50.4,59.4,48.3,61.5,45.7,61.5z M45.7,43.4c-2.1,0-3.8,1.7-3.8,3.8v9.6c0,2.1,1.7,3.8,3.8,3.8c2.1,0,3.8-1.7,3.8-3.8v-9.6
		C49.6,45.1,47.9,43.4,45.7,43.4z"/>
</g>
<g>
	<path class="st1" d="M54.6,61.1L54.6,61.1c-2.3,0-4.3-1.9-4.3-4.3v-9.6c0-2.3,1.9-4.3,4.3-4.3h0c2.3,0,4.3,1.9,4.3,4.3v9.6
		C58.8,59.1,56.9,61.1,54.6,61.1z"/>
	<path class="st0" d="M54.6,61.5c-2.6,0-4.7-2.1-4.7-4.7v-9.6c0-2.6,2.1-4.7,4.7-4.7c2.6,0,4.7,2.1,4.7,4.7v9.6
		C59.3,59.4,57.2,61.5,54.6,61.5z M54.6,43.4c-2.1,0-3.8,1.7-3.8,3.8v9.6c0,2.1,1.7,3.8,3.8,3.8c2.1,0,3.8-1.7,3.8-3.8v-9.6
		C58.4,45.1,56.7,43.4,54.6,43.4z"/>
</g>
<g>
	<path class="st1" d="M58.8,56.8V37.3c0-2.3,1.9-4.3,4.3-4.3h0c2.3,0,4.3,1.9,4.3,4.3v20.3"/>
	<path class="st0" d="M67.3,58.1c-0.2,0-0.4-0.2-0.4-0.4V37.3c0-2.1-1.7-3.8-3.8-3.8c-2.1,0-3.8,1.7-3.8,3.8v19.5
		c0,0.2-0.2,0.4-0.4,0.4s-0.4-0.2-0.4-0.4V37.3c0-2.6,2.1-4.7,4.7-4.7c2.6,0,4.7,2.1,4.7,4.7v20.3C67.8,57.9,67.6,58.1,67.3,58.1z"
		/>
</g>
<g>
	<path class="st1" d="M32.7,53.4L32.7,53.4c0-2.3,2-4.3,4.5-4.3h10c2.5,0,4.5,1.9,4.5,4.3v0c0,2.3-2,4.3-4.5,4.3h-6.2"/>
	<path class="st0" d="M47.2,58.1h-6.2c-0.2,0-0.4-0.2-0.4-0.4s0.2-0.4,0.4-0.4h6.2c2.2,0,4-1.7,4-3.8c0-2.1-1.8-3.8-4-3.8h-10
		c-2.2,0-4,1.7-4,3.8c0,0.2-0.2,0.4-0.4,0.4s-0.4-0.2-0.4-0.4c0-2.6,2.2-4.7,4.9-4.7h10c2.7,0,4.9,2.1,4.9,4.7S49.9,58.1,47.2,58.1z
		"/>
</g>
<g>
	<polygon class="st1" points="23.1,39.8 17.5,40.6 21.3,45.8 18.1,46.2 27.1,56.4 24.4,47.9 27.3,47.5 	"/>
	<path class="st0" d="M27.1,56.8c-0.1,0-0.2-0.1-0.3-0.1l-9-10.2c-0.1-0.1-0.1-0.3-0.1-0.4c0.1-0.2,0.2-0.3,0.3-0.3l2.5-0.3
		l-3.3-4.6c-0.1-0.1-0.1-0.3,0-0.4c0.1-0.1,0.2-0.2,0.3-0.3l5.6-0.8c0.2,0,0.4,0.1,0.4,0.2l4.2,7.7c0.1,0.1,0.1,0.3,0,0.4
		s-0.2,0.2-0.3,0.2L25,48.3l2.6,8c0.1,0.2,0,0.4-0.2,0.5C27.3,56.8,27.2,56.8,27.1,56.8z M19,46.5l7.1,8L24,48.1c0-0.1,0-0.3,0-0.4
		c0.1-0.1,0.2-0.2,0.3-0.2l2.3-0.3l-3.8-6.9l-4.6,0.6l3.3,4.6c0.1,0.1,0.1,0.3,0,0.4c-0.1,0.1-0.2,0.2-0.3,0.3L19,46.5z"/>
</g>
<g>
	<polygon class="st1" points="76.9,39.8 82.5,40.6 78.7,45.8 81.9,46.2 72.9,56.4 75.7,47.9 72.7,47.5 	"/>
	<path class="st0" d="M72.9,56.8c-0.1,0-0.1,0-0.2-0.1c-0.2-0.1-0.3-0.3-0.2-0.5l2.6-8L72.6,48c-0.1,0-0.3-0.1-0.3-0.2
		s-0.1-0.3,0-0.4l4.2-7.7c0.1-0.2,0.3-0.3,0.4-0.2l5.6,0.8c0.2,0,0.3,0.1,0.3,0.3c0.1,0.1,0,0.3,0,0.4l-3.3,4.6l2.5,0.3
		c0.2,0,0.3,0.1,0.3,0.3c0.1,0.2,0,0.3-0.1,0.4l-9,10.2C73.1,56.8,73,56.8,72.9,56.8z M73.4,47.2l2.3,0.3c0.1,0,0.2,0.1,0.3,0.2
		c0.1,0.1,0.1,0.2,0,0.4L74,54.6l7.1-8l-2.4-0.3c-0.2,0-0.3-0.1-0.3-0.3c-0.1-0.1,0-0.3,0-0.4l3.3-4.6l-4.6-0.6L73.4,47.2z"/>
</g>
<g>
	<polygon class="st1" points="24.3,64.2 27.6,61.4 28.6,66.2 30.5,64.6 31.6,74.9 28.2,69.1 26.5,70.5 	"/>
	<path class="st0" d="M31.6,75.4c-0.2,0-0.3-0.1-0.4-0.2l-3.1-5.4l-1.3,1.1c-0.1,0.1-0.3,0.1-0.4,0.1c-0.1,0-0.2-0.1-0.3-0.3
		l-2.2-6.3c-0.1-0.2,0-0.4,0.1-0.5l3.3-2.8c0.1-0.1,0.3-0.1,0.4-0.1c0.1,0,0.3,0.2,0.3,0.3l0.9,4.1l1.3-1.1c0.1-0.1,0.3-0.1,0.4-0.1
		c0.1,0.1,0.3,0.2,0.3,0.4L32,74.9c0,0.2-0.1,0.4-0.3,0.5C31.7,75.4,31.7,75.4,31.6,75.4z M28.2,68.6C28.2,68.6,28.3,68.6,28.2,68.6
		c0.2,0,0.3,0.1,0.4,0.2l2.4,4.1l-0.8-7.4l-1.3,1.1c-0.1,0.1-0.3,0.1-0.4,0.1c-0.1,0-0.3-0.2-0.3-0.3l-0.9-4.1l-2.5,2.1l1.9,5.4
		l1.3-1.1C28,68.7,28.1,68.6,28.2,68.6z"/>
</g>
<g>
	<polygon class="st1" points="75.6,64 72.2,61.4 71.4,66.2 69.4,64.7 68.7,75 71.8,69 73.6,70.4 	"/>
	<path class="st0" d="M68.7,75.5c0,0-0.1,0-0.1,0c-0.2-0.1-0.3-0.2-0.3-0.4L69,64.6c0-0.2,0.1-0.3,0.3-0.4c0.1-0.1,0.3,0,0.4,0.1
		l1.4,1.1l0.7-4.1c0-0.2,0.1-0.3,0.3-0.3c0.1-0.1,0.3,0,0.4,0.1l3.4,2.6c0.1,0.1,0.2,0.3,0.2,0.5l-2,6.4c0,0.1-0.1,0.2-0.3,0.3
		c-0.1,0-0.3,0-0.4-0.1L72,69.7l-2.9,5.6C69,75.4,68.8,75.5,68.7,75.5z M69.8,65.5L69.3,73l2.2-4.2c0.1-0.1,0.2-0.2,0.3-0.2
		c0.1,0,0.3,0,0.4,0.1l1.3,1l1.7-5.5l-2.6-2l-0.7,4.1c0,0.2-0.1,0.3-0.3,0.3c-0.1,0.1-0.3,0-0.4-0.1L69.8,65.5z"/>
</g>
</svg>
