<?xml version="1.0" encoding="utf-8"?>
<!-- Generator: Adobe Illustrator 21.0.2, SVG Export Plug-In . SVG Version: 6.00 Build 0)  -->
<svg version="1.1" id="Layer_1" xmlns="http://www.w3.org/2000/svg" xmlns:xlink="http://www.w3.org/1999/xlink" x="0px" y="0px"
	 viewBox="0 0 100 100" style="enable-background:new 0 0 100 100;" xml:space="preserve">
<style type="text/css">
	.st0{fill:none;stroke:#EB8C69;stroke-width:4.5394;stroke-linecap:round;stroke-linejoin:round;stroke-miterlimit:10;}
</style>
<title>25964</title>
<g id="l3eDsA.tif">
	<g>
		<path class="st0" d="M90.9,27.1c0-4.4,0-8.7,0-13.3c-27.4,0-54.3,0-82.4,0c0.2,4.6,0.4,9,0.6,13.3"/>
		<path class="st0" d="M9.7,27.7c0.4,0.2,0.8,0.5,1.1,0.5c26.1-0.2,52.2-0.4,78.3-0.5c3.8,0,5.8,1.5,5.7,5.7
			c-0.1,15.9-0.1,31.8,0,47.7c0,4.3-2,5.2-5.7,5.1c-16.3-0.4-32.5-0.8-48.8-0.8c-10,0-20,0.5-30.1,0.8c-1.3,0-2.7,0-4.4,0
			c-0.3-1.8-0.7-3.2-0.7-4.5C5.5,68.7,5.8,55.9,6,43c0-3-0.5-6.1-0.8-9.1c-0.4-3.2,0.7-5.4,4-6.2"/>
		<path class="st0" d="M40.4,84.4c0-13.4,0-26.9,0-41.4c-11.7,0-22.9,0-34,0"/>
		<path class="st0" d="M93.1,43c-10.8,0-21.6,0-32.6,0c-1.1,3.5-2,6.6-2.6,8.7c0.5,3.6,1,6.2,1.1,8.9c0.3,8.1,0.4,16.3,0.6,24.4"/>
		<path class="st0" d="M42.1,52.7c4.9,0,9.8,0,14.8,0"/>
		<path class="st0" d="M21.1,52.7c-5.1,1.7-9.4,4.4-10.2,10.2c-1,7.4,3.4,13.3,10.2,14.2c5.7,0.7,12.7-4.2,13.6-9.7
			c1.3-8-3.6-13.1-10.8-14.7c-0.7-0.2-1.5,0-2.3,0"/>
		<path class="st0" d="M74.4,52.7c-1.3,0.6-2.8,1-4,1.7c-4.5,2.9-7,10.4-5.1,14.7c2.4,5.4,9.3,9.5,14.2,7.9c6.5-2.1,10.3-7.8,9.7-13
			c-0.7-5.6-5.1-11-11.9-11.3c-0.8,0-1.5,0-2.3,0"/>
	</g>
</g>
</svg>
