<svg xmlns="http://www.w3.org/2000/svg" width="50" height="41" viewBox="0 0 50 41">
  <metadata><?xpacket begin="﻿" id="W5M0MpCehiHzreSzNTczkc9d"?>
<x:xmpmeta xmlns:x="adobe:ns:meta/" x:xmptk="Adobe XMP Core 5.6-c138 79.159824, 2016/09/14-01:09:01        ">
   <rdf:RDF xmlns:rdf="http://www.w3.org/1999/02/22-rdf-syntax-ns#">
      <rdf:Description rdf:about=""/>
   </rdf:RDF>
</x:xmpmeta>
                                                                                                    
                                                                                                    
                                                                                                    
                                                                                                    
                                                                                                    
                                                                                                    
                                                                                                    
                                                                                                    
                                                                                                    
                                                                                                    
                                                                                                    
                                                                                                    
                                                                                                    
                                                                                                    
                                                                                                    
                                                                                                    
                                                                                                    
                                                                                                    
                                                                                                    
                                                                                                    
                           
<?xpacket end="w"?></metadata>
<defs>
    <style>
      .cls-1 {
        fill: #ff9d1a;
        fill-rule: evenodd;
      }
    </style>
  </defs>
  <path id="Boombox" class="cls-1" d="M142,156H98a3,3,0,0,1-3-3V126a2.991,2.991,0,0,1,2.018-2.822C97.013,123.119,97,123.061,97,123v-6a2,2,0,0,1,2-2h42a2,2,0,0,1,2,2v6c0,0.061-.013.119-0.018,0.178A2.99,2.99,0,0,1,145,126v27A3,3,0,0,1,142,156Zm-17.723-2a1.987,1.987,0,0,1-.277-1V139a1,1,0,0,0-1-1h-6a1,1,0,0,0-1,1v14a1.987,1.987,0,0,1-.277,1h8.554ZM97,153a1,1,0,0,0,1,1h15a1,1,0,0,0,1-1V134a1,1,0,0,0-1-1H98a1,1,0,0,0-1,1v19Zm44-35a1,1,0,0,0-1-1H100a1,1,0,0,0-1,1v4a1,1,0,0,0,1,1h40a1,1,0,0,0,1-1v-4Zm2,8a1,1,0,0,0-1-1H98a1,1,0,0,0-1,1v5.277A1.987,1.987,0,0,1,98,131h16a2,2,0,0,1,2,2v2a1,1,0,0,0,1,1h6a1,1,0,0,0,1-1v-2a2,2,0,0,1,2-2h16a1.987,1.987,0,0,1,1,.277V126Zm0,8a1,1,0,0,0-1-1H127a1,1,0,0,0-1,1v19a1,1,0,0,0,1,1h15a1,1,0,0,0,1-1V134Zm-8.5,17a7.5,7.5,0,1,1,7.5-7.5A7.5,7.5,0,0,1,134.5,151Zm0-13a5.5,5.5,0,1,0,5.5,5.5A5.5,5.5,0,0,0,134.5,138Zm0,8a2.5,2.5,0,1,1,2.5-2.5A2.5,2.5,0,0,1,134.5,146Zm5.5-17h-4a1,1,0,0,1,0-2h4A1,1,0,0,1,140,129Zm-36,0a1,1,0,1,1,1-1A1,1,0,0,1,104,129Zm-4,0a1,1,0,1,1,1-1A1,1,0,0,1,100,129Zm5.5,7a7.5,7.5,0,1,1-7.5,7.5A7.5,7.5,0,0,1,105.5,136Zm0,13a5.5,5.5,0,1,0-5.5-5.5A5.5,5.5,0,0,0,105.5,149Zm0-8a2.5,2.5,0,1,1-2.5,2.5A2.5,2.5,0,0,1,105.5,141Zm0,1.681a0.819,0.819,0,1,1-.819.819A0.818,0.818,0,0,1,105.5,142.681Zm29,0.007a0.813,0.813,0,1,1-.813.812A0.812,0.812,0,0,1,134.5,142.688Z" transform="translate(-95 -115)"/>
</svg>
