<?xml version="1.0" encoding="utf-8"?>
<!-- Generator: Adobe Illustrator 21.0.2, SVG Export Plug-In . SVG Version: 6.00 Build 0)  -->
<svg version="1.1" id="Layer_1" xmlns="http://www.w3.org/2000/svg" xmlns:xlink="http://www.w3.org/1999/xlink" x="0px" y="0px"
	 viewBox="0 0 100 100" style="enable-background:new 0 0 100 100;" xml:space="preserve">
<style type="text/css">
	.st0{fill:none;stroke:#EB8C69;stroke-width:4.8354;stroke-linecap:round;stroke-linejoin:round;stroke-miterlimit:10;}
</style>
<title>25964</title>
<g>
	<path class="st0" d="M45.5,65.8c-2.1,2.4-5,4.3-7.7,2.8c-2.2-1.3-3.6-3.5-3.7-7.6c-0.1-7.5-0.1-14.9,0.2-22.4
		c0.2-5.4-0.4-11.3-0.9-16.9c-0.3-2.7-2.2-5-5.3-4.8c-3.5,0.2-5.9,2.5-5.9,5.9c-0.2,16.3-0.9,32.7,0.2,48.9
		C23.2,85.1,34.8,94.2,48,94.8c13.9,0.7,24.2-6,29-18.9c3.7-9.7,0.7-18.2-9.1-22.8c-2.3-1.1-4.7-2.4-7-3.4c-4.2-2-6.7,0-8.4,2.7
		c-1.5,2.6-0.3,5.4,2.2,7.8c3.2,3.2,7.9,3.3,11,6.5"/>
	<path class="st0" d="M69,53.1c1.3-7.2,0.4-14.5,0.6-21.8c0.2-6.4-0.2-12.9,0.1-19.3c0.2-4.5-2.7-6.9-6.1-6.9c-3.5,0-6,2.8-6,6.9
		c0,12.1,0,24.2,0,36.3"/>
	<path class="st0" d="M55.7,37.9c-8.9-1.2-10.4-0.1-10.3,8.4c0.1,4.6-0.7,9.3,0.6,13.9"/>
	<path class="st0" d="M58.1,64c-4.3,5.9-8.2,6.4-12.1,1.8c-1.2-1.4-0.5-2.8,0-4.2"/>
	<path class="st0" d="M46.1,39.7c-3.2-2.8-6.9-3-10.9-1.8"/>
	<path class="st0" d="M35.2,61c5.8-0.4,11.9,1.1,17.5-1.2"/>
</g>
</svg>
