<?xml version="1.0" encoding="utf-8"?>
<!-- Generator: Adobe Illustrator 21.0.2, SVG Export Plug-In . SVG Version: 6.00 Build 0)  -->
<svg version="1.1" id="Layer_1" xmlns="http://www.w3.org/2000/svg" xmlns:xlink="http://www.w3.org/1999/xlink" x="0px" y="0px"
	 viewBox="0 0 100 100" style="enable-background:new 0 0 100 100;" xml:space="preserve">
<style type="text/css">
	.st0{fill:#EA8C69;}
	.st1{fill:none;}
	.st2{fill:none;stroke:#EA8C69;stroke-width:1.5;stroke-linecap:round;stroke-linejoin:round;}
	
		.st3{fill:none;stroke:#EA8C69;stroke-width:1.5;stroke-linecap:round;stroke-linejoin:round;stroke-dasharray:9.881886e-03,3.9528;}
</style>
<title>25964</title>
<g>
	<path class="st0" d="M50,1c27,0,49,22,49,49S77,99,50,99S1,77,1,50S23,1,50,1 M50,0C22.4,0,0,22.4,0,50s22.4,50,50,50
		s50-22.4,50-50S77.6,0,50,0L50,0z"/>
</g>
<path id="SVGID_x5F_1_x5F_" class="st1" d="M89.9,50C89.9,72,72,89.9,50,89.9S10.1,72,10.1,50S28,10.1,50,10.1S89.9,28,89.9,50z"/>
<text><textPath  xlink:href="#SVGID_x5F_1_x5F_" startOffset="16.333%">
<tspan  class="st0" style="font-family:'Domus-Semibold'; font-size:9px; letter-spacing:100;">INDIE</tspan></textPath>
</text>
<g>
	<g>
		<line class="st2" x1="34.5" y1="9.5" x2="34.5" y2="9.5"/>
		<path class="st3" d="M38.2,8.3c3.2-0.9,6.7-1.5,10.2-1.6c23.9-0.9,44,17.8,44.9,41.7c0.9,23.9-17.8,44-41.7,44.9
			c-23.9,0.9-44-17.8-44.9-41.7C6.5,47,7.1,42.5,8.3,38.3"/>
		<line class="st2" x1="8.9" y1="36.4" x2="8.9" y2="36.4"/>
	</g>
</g>
<g>
	<path class="st0" d="M50,12.4l0,1h0c9.5,0,18.5,3.6,25.3,10.2c6.9,6.6,10.8,15.5,11.2,25c0.7,20.1-15.1,37.1-35.2,37.9
		c-0.5,0-0.9,0-1.4,0c-9.5,0-18.5-3.6-25.3-10.2c-6.9-6.6-10.8-15.5-11.2-25c-0.4-9.8,3.1-19.1,9.8-26.2
		c6.6-7.2,15.7-11.3,25.4-11.6c0.5,0,0.9,0,1.4,0L50,12.4 M50,12.4c-0.5,0-0.9,0-1.4,0c-20.7,0.8-36.9,18.2-36.2,38.9
		C13.2,71.6,29.9,87.6,50,87.6c0.5,0,0.9,0,1.4,0c20.7-0.8,36.9-18.2,36.2-38.9C86.8,28.4,70.1,12.4,50,12.4L50,12.4z"/>
</g>
</svg>
