<svg id="Headphones_1_copy" data-name="Headphones 1 copy" xmlns="http://www.w3.org/2000/svg" width="44" height="56" viewBox="0 0 44 56">
  <metadata><?xpacket begin="﻿" id="W5M0MpCehiHzreSzNTczkc9d"?>
<x:xmpmeta xmlns:x="adobe:ns:meta/" x:xmptk="Adobe XMP Core 5.6-c138 79.159824, 2016/09/14-01:09:01        ">
   <rdf:RDF xmlns:rdf="http://www.w3.org/1999/02/22-rdf-syntax-ns#">
      <rdf:Description rdf:about=""/>
   </rdf:RDF>
</x:xmpmeta>
                                                                                                    
                                                                                                    
                                                                                                    
                                                                                                    
                                                                                                    
                                                                                                    
                                                                                                    
                                                                                                    
                                                                                                    
                                                                                                    
                                                                                                    
                                                                                                    
                                                                                                    
                                                                                                    
                                                                                                    
                                                                                                    
                                                                                                    
                                                                                                    
                                                                                                    
                                                                                                    
                           
<?xpacket end="w"?></metadata>
<defs>
    <style>
      .cls-1 {
        fill: #ff9d1a;
        fill-rule: evenodd;
      }
    </style>
  </defs>
  <path id="Headphones_1" data-name="Headphones 1" class="cls-1" d="M460,113a22,22,0,0,1,22,22v12a22,22,0,0,1-44,0V135A22,22,0,0,1,460,113Zm0,2a20,20,0,0,1,20,20v12a20,20,0,0,1-40,0V135A20,20,0,0,1,460,115Zm-22,32h44v22H438V147Zm10-10v20A10,10,0,0,1,448,137Zm0,2v16A8,8,0,0,1,448,139Zm0-4h2a2,2,0,0,1,2,2v20a2,2,0,0,1-2,2h-2a2,2,0,0,1-2-2V137A2,2,0,0,1,448,135Zm1,2a1,1,0,0,1,1,1v18a1,1,0,0,1-2,0V138A1,1,0,0,1,449,137Zm23,0v20A10,10,0,0,0,472,137Zm0,2v16A8,8,0,0,0,472,139Zm-2-4h2a2,2,0,0,1,2,2v20a2,2,0,0,1-2,2h-2a2,2,0,0,1-2-2V137A2,2,0,0,1,470,135Zm1,2a1,1,0,0,1,1,1v18a1,1,0,0,1-2,0V138A1,1,0,0,1,471,137Zm2-13.974a1,1,0,0,1-1.974.186l-0.014,0a16.527,16.527,0,0,0-22.029-.007,1,1,0,0,1-1.972-.126c-0.151-.148-0.123-0.388.267-0.779a17.933,17.933,0,0,1,25.416-.034C473.063,122.634,473.115,122.873,473,123.026Zm-27.184-3.642,2.9,2.933a1,1,0,0,1,0,1.393,0.96,0.96,0,0,1-1.371,0l-2.9-2.933a1,1,0,0,1,0-1.393A0.958,0.958,0,0,1,445.813,119.384Zm28.374,0-2.9,2.933a1,1,0,0,0,0,1.393,0.96,0.96,0,0,0,1.371,0l2.9-2.933a1,1,0,0,0,0-1.393A0.958,0.958,0,0,0,474.187,119.384Z" transform="translate(-438 -113)"/>
</svg>
