<?xml version="1.0" encoding="utf-8"?>
<!-- Generator: Adobe Illustrator 21.0.2, SVG Export Plug-In . SVG Version: 6.00 Build 0)  -->
<svg version="1.1" id="Layer_1" xmlns="http://www.w3.org/2000/svg" xmlns:xlink="http://www.w3.org/1999/xlink" x="0px" y="0px"
	 viewBox="0 0 100 100" style="enable-background:new 0 0 100 100;" xml:space="preserve">
<style type="text/css">
	.st0{fill:none;stroke:#EA8C69;stroke-width:4.8377;stroke-linecap:round;stroke-linejoin:round;stroke-miterlimit:10;}
</style>
<title>25964</title>
<g id="tIQFxO.tif">
	<g>
		<path class="st0" d="M65,51.2C59,58.1,51.3,62.9,44.4,68.7c-7.1,6-14.7,11.5-21.7,17.7c-3.2,2.8-6.9,5.5-10.1,2.7
			C9.1,85.9,11,82.1,14,78.3c11.5-14.5,23-29,35.3-42.8c0.9-1,1.2-1.9,1.1-3.1c-0.7-6.8,2.6-12,5.8-17.7c3-5.3,8.1-6,12.4-8.1
			c2.7-1.3,6.9-0.5,9.5,0.2c5.8,1.5,9.8,7.1,13.7,11.4c2.5,2.8,3.9,8.7,2.5,12.9c-2.4,7.5-5.9,14.5-14.8,17.2c-4.5,1.3-9,1-13.4,2.2
			"/>
		<path class="st0" d="M50.5,35.4c3.8,6.2,9.3,10.9,15.1,15.1"/>
		<path class="st0" d="M54.1,22.1c0.4,0.6,0.7,1.3,1.2,1.8c3.6,3.1,6.9,6.3,9.4,10.7c2.2,3.9,7.7,5.7,10.6,9.9
			c0.8,1.2,2.4,1.9,2.4,3.6"/>
		<path class="st0" d="M86.1,14.3c-0.6,0.8-1.8,1.6-1.7,2.4c0.2,9.3-0.8,18.6,0.5,27.8"/>
		<path class="st0" d="M74.6,8.2c-0.2,7.7-0.6,15.3-0.5,23c0,3.1-0.8,5.7-2.5,8.2"/>
		<path class="st0" d="M63.8,10.1c1.3,5.4,0.3,10.9,0.6,16.3"/>
		<path class="st0" d="M92.8,25.8c-7.9,0-15.7,0-23.6,0c-2.5,0-4.9,0.4-6.7,2.4"/>
		<path class="st0" d="M83.7,16.1c-8.9-0.7-17.8,1.4-26.6-0.6"/>
		<path class="st0" d="M74.6,36.1c5.1,1.6,10.6-0.5,15.7,1.2"/>
		<path class="st0" d="M11.1,89.3c-2.2,1.4-3.1,4.4-6,4.8"/>
	</g>
</g>
</svg>
