<?xml version="1.0" encoding="utf-8"?>
<!-- Generator: Adobe Illustrator 21.0.2, SVG Export Plug-In . SVG Version: 6.00 Build 0)  -->
<svg version="1.1" id="Layer_1" xmlns="http://www.w3.org/2000/svg" xmlns:xlink="http://www.w3.org/1999/xlink" x="0px" y="0px"
	 viewBox="0 0 100 100" style="enable-background:new 0 0 100 100;" xml:space="preserve">
<style type="text/css">
	.st0{fill:none;stroke:#EA8C69;stroke-width:4.8354;stroke-linecap:round;stroke-linejoin:round;stroke-miterlimit:10;}
</style>
<title>25964</title>
<g>
	<path class="st0" d="M11.1,56C9.8,68,10.9,80.1,10.5,92.2c-0.1,3.4,1.7,4.4,4.8,4.3c22-0.6,43.9,0.8,65.9-0.5
		c3.8-0.2,8.3,2.2,11.3-0.8c3.3-3.4,1.1-8.3,1.3-12.6c0.3-8.4,0.7-17-0.2-25.4c-0.3-3.1,2.6-3.7,1.9-6.9c-1.5-1.8-1.8-4.8-2.2-7.7
		C89.9,19.4,69.7,4.3,46.8,7.2C27.7,9.6,13,23.7,10.6,43.9c-0.1,0.8-0.4,1.8,1.6,3c2.6,0,6.2,0,9.9,0"/>
	<path class="st0" d="M81.9,95.2c0-12.7,0-25.4,0-38.1c0-12.9-0.7-25.4-13.3-33.3c-9.3-5.8-19.2-6.9-29-2.2
		c-9.3,4.5-16.5,11.9-16.8,22.8c-0.2,8.5-1.4,16.9-0.9,25.4c0.5,8.2,0.1,16.5,0.1,24.8"/>
	<path class="st0" d="M34.7,55.4C32.6,69.2,35.2,76.9,46.8,82c9,4,21.4-3.5,22.9-14c0.8-5.5,0.1-11.3,0.1-16.9
		c0-3.3-1.8-4.3-4.8-4.3c-8.5,0.1-16.9-0.1-25.4,0.1c-5,0.1-5.9,2.1-4.2,7.8"/>
	<path class="st0" d="M35.9,54.8c10.9,0.4,21.8-0.7,32.6,0.6"/>
	<path class="st0" d="M92.7,55.4c-3.2-0.9-6.4-0.9-9.7,0"/>
	<path class="st0" d="M83.1,46.9c3.2,0,6.4,0,9.7,0"/>
	<path class="st0" d="M20.8,55.4c-3-1.5-6,0-9.6,0c-1.9-2.2-5.4-4.2-1.2-7.9"/>
</g>
</svg>
