<?xml version="1.0" encoding="utf-8"?>
<!-- Generator: Adobe Illustrator 21.0.2, SVG Export Plug-In . SVG Version: 6.00 Build 0)  -->
<svg version="1.1" id="Layer_1" xmlns="http://www.w3.org/2000/svg" xmlns:xlink="http://www.w3.org/1999/xlink" x="0px" y="0px"
	 viewBox="0 0 100 100" style="enable-background:new 0 0 100 100;" xml:space="preserve">
<style type="text/css">
	.st0{fill:none;stroke:#EA8C69;stroke-width:4.8933;stroke-linecap:round;stroke-linejoin:round;stroke-miterlimit:10;}
</style>
<title>25964</title>
<g>
	<path class="st0" d="M23,89.9c0.8,3.2,2.3,5.7,6.1,4.8c3.6-0.8,3.1-3.9,3.1-6.7c0-10.8-0.1-21.6,0.1-32.4c0.1-3.7-1-6.4-4.9-6
		c-3.5,0.4-4,2.9-3.9,6.6c0.3,11-0.2,22-0.4,33"/>
	<path class="st0" d="M77.4,55c-0.4-0.8-0.6-1.9-1.3-2.4c-1.5-1.2-3.5-3.1-4.8-2.8c-1.3,0.3-3,3-3,4.6c-0.3,11.8-0.3,23.7,0,35.5
		c0,2.2,0.4,5.5,4.2,4.8c3.7-0.6,4.3-3.4,4.3-6.7c-0.1-10.8,0-21.6,0-32.4"/>
	<path class="st0" d="M78.1,89.3c8-1.3,14-7.3,14-14.7c0.1-10.8,0.6-21.7-0.1-32.4C90.9,27.1,78.5,13.2,64.6,8
		C51,2.9,37.7,4.5,26.2,13C14.5,21.7,7,33.3,7.7,48.9C8,56,7.8,63.2,7.7,70.3c-0.1,10.2,4.7,16.6,14.7,19.6"/>
	<path class="st0" d="M79.3,18.9c-1.6,1.4-3.3,2.9-4.9,4.3C62,11.9,42.3,10.4,29.1,20.7c-2.7,2.2-5.2,1.3-7.3-1.2"/>
	<path class="st0" d="M22.4,54.4c-4.3,2.4-8.6,4.9-12.8,7.3"/>
	<path class="st0" d="M78.1,55c5.6-0.1,8.6,4.1,12.2,7.3"/>
</g>
</svg>
